External Loads File
version=1
nRows=85
nColumns=13
Range=5.000000e-03-10 seconds
endheader
time 	forceRightX 	forceRightY 	forceRightZ 	pointRightX 	pointRightY 	pointRightZ 	forceLeftX 	forceLeftY 	forceLeftZ 	pointLeftX 	pointLeftY 	pointLeftZ 		
5.005000 5.210195 263.903138 -0.000000 0.344920 0.453983 -0.134265 331.394249 768.001626 -0.000000 0.271389 0.147437 -0.374223
5.010000 4.400200 266.392612 -0.000000 0.354742 0.453530 -0.134190 319.213564 685.938946 -0.000000 0.261835 0.149027 -0.374437
5.015000 3.648450 267.897734 -0.000000 0.364351 0.452580 -0.134107 304.543191 610.846032 -0.000000 0.252424 0.151304 -0.374850
5.020000 3.148194 268.461755 -0.000000 0.373678 0.450991 -0.133994 288.463037 541.804992 -0.000000 0.243102 0.154312 -0.375083
5.025000 2.844501 268.097278 -0.000000 0.382739 0.448758 -0.133875 271.203363 477.978486 -0.000000 0.234071 0.157952 -0.375121
5.030000 2.620956 266.854600 -0.000000 0.391410 0.445982 -0.133676 252.802534 418.589774 -0.000000 0.225361 0.162159 -0.375166
5.035000 2.435452 264.863708 -0.000000 0.399702 0.442647 -0.133422 233.408760 362.952069 -0.000000 0.217097 0.166913 -0.375397
5.040000 2.368214 262.356502 -0.000000 0.407659 0.438611 -0.132980 213.349211 310.522417 -0.000000 0.209270 0.172115 -0.375686
5.045000 2.141458 259.718645 -0.000000 0.415064 0.434284 -0.132809 192.639898 261.305452 -0.000000 0.201864 0.177848 -0.375816
5.050000 1.929297 257.495305 -0.000000 0.421996 0.429141 -0.132633 172.004390 215.183164 -0.000000 0.195054 0.184019 -0.375980
5.055000 1.666463 256.321925 -0.000000 0.428489 0.423524 -0.132392 151.991468 172.455295 -0.000000 0.188730 0.190530 -0.376201
5.060000 1.390936 256.830679 -0.000000 0.434373 0.417498 -0.132203 133.324524 133.457951 -0.000000 0.182938 0.197484 -0.376427
5.065000 1.488251 259.623922 -0.000000 0.439811 0.410924 -0.132138 116.863708 98.335602 -0.000000 0.177555 0.204824 -0.376671
5.070000 1.953838 265.307697 -0.000000 0.444656 0.403974 -0.132059 103.081779 67.333782 -0.000000 0.172598 0.212488 -0.376900
5.075000 3.250127 274.507995 -0.000000 0.448855 0.396408 -0.132029 92.333175 40.370243 -0.000000 0.168166 0.220643 -0.377169
5.080000 5.101917 287.850290 -0.000000 0.452270 0.388616 -0.131853 84.553654 17.525519 -0.000000 0.164184 0.228895 -0.377567
5.085000 8.012128 305.887813 -0.000000 0.455080 0.380443 -0.131753 79.614539 -1.481568 -0.000000 0.160723 0.237449 -0.378021
5.090000 11.998568 329.073408 -0.000000 0.457284 0.371963 -0.131654 77.117091 -16.830086 -0.000000 0.157812 0.246354 -0.378004
5.095000 17.232268 357.687834 -0.000000 0.458793 0.362916 -0.131419 76.505612 -28.771794 -0.000000 0.155095 0.255567 -0.377347
5.100000 22.712172 391.820601 -0.000000 0.459826 0.353640 -0.131483 77.302928 -37.340894 -0.000000 0.153087 0.264861 -0.377610
5.105000 28.546420 431.220494 -0.000000 0.460307 0.343820 -0.131247 79.050707 -42.870327 -0.000000 0.151745 0.274335 -0.377601
5.110000 34.116783 475.384470 -0.000000 0.460030 0.333672 -0.130863 81.475835 -45.619787 -0.000000 0.150959 0.283888 -0.377367
5.115000 39.384319 523.530819 -0.000000 0.459515 0.323259 -0.130815 84.359576 -46.066289 -0.000000 0.150828 0.293552 -0.377369
5.120000 43.957461 574.762179 -0.000000 0.458346 0.312779 -0.129916 87.570329 -44.745931 -0.000000 0.151279 0.303318 -0.377443
5.125000 48.552010 628.089883 -0.000000 0.456900 0.302008 -0.131155 90.882321 -42.451630 -0.000000 0.152414 0.313227 -0.377524
5.130000 52.618575 682.725409 -0.000000 0.455042 0.291202 -0.131180 94.116115 -39.769188 -0.000000 0.154078 0.323090 -0.377532
5.135000 57.060559 737.927921 -0.000000 0.452632 0.280291 -0.131291 96.931851 -37.346007 -0.000000 0.156467 0.332986 -0.377526
5.140000 61.582447 793.195187 -0.000000 0.449953 0.269490 -0.131311 99.043793 -35.437077 -0.000000 0.159322 0.342811 -0.377379
5.145000 68.336098 847.918851 -0.000000 0.446440 0.258750 -0.131094 100.095662 -34.381602 -0.000000 0.162947 0.352860 -0.377264
5.150000 74.875987 901.901950 -0.000000 0.442595 0.248372 -0.131227 100.015675 -33.777886 -0.000000 0.167173 0.362416 -0.377053
5.155000 83.164291 954.668879 -0.000000 0.438255 0.238187 -0.131426 98.650659 -33.653853 -0.000000 0.172043 0.371795 -0.377021
5.160000 93.162582 1006.015392 -0.000000 0.433346 0.228094 -0.131775 96.024806 -33.789735 -0.000000 0.177447 0.380728 -0.376672
5.165000 104.424461 1055.891811 -0.000000 0.428074 0.218394 -0.132228 92.235852 -34.019500 -0.000000 0.183391 0.389349 -0.376373
5.170000 119.086642 1103.998139 -0.000000 0.422288 0.208849 -0.132535 87.307376 -34.519531 -0.000000 0.189907 0.397873 -0.376106
5.175000 136.198932 1150.148120 -0.000000 0.415980 0.199695 -0.132948 81.321362 -35.266453 -0.000000 0.196943 0.406017 -0.375886
5.180000 155.716178 1193.773868 -0.000000 0.409271 0.191088 -0.133387 74.283637 -36.345930 -0.000000 0.204405 0.413890 -0.375659
5.185000 178.321883 1233.922926 -0.000000 0.402102 0.182847 -0.133804 66.158052 -37.846518 -0.000000 0.212283 0.421348 -0.375383
5.190000 204.375874 1269.446000 -0.000000 0.394323 0.175141 -0.133938 56.921346 -39.739494 -0.000000 0.220586 0.428371 -0.375164
5.195000 232.912686 1299.224280 -0.000000 0.386303 0.167873 -0.134426 46.627641 -41.830052 -0.000000 0.229239 0.435058 -0.374915
5.200000 263.257989 1321.967825 -0.000000 0.378047 0.161124 -0.134826 35.389317 -43.867792 -0.000000 0.238289 0.441270 -0.374640
5.205000 295.344662 1336.139021 -0.000000 0.369363 0.154896 -0.135320 23.354832 -45.589522 -0.000000 0.247627 0.447060 -0.374399
5.210000 326.675988 1340.702176 -0.000000 0.360552 0.149292 -0.135882 10.771589 -46.720990 -0.000000 0.257204 0.452277 -0.374048
5.215000 357.742152 1334.085443 -0.000000 0.351268 0.144234 -0.136009 -2.232089 -47.113937 -0.000000 0.267048 0.456730 -0.373762
5.220000 386.040540 1315.698250 -0.000000 0.341810 0.139970 -0.136420 -15.465142 -46.689680 -0.000000 0.277025 0.460908 -0.373408
5.225000 409.966678 1285.184404 -0.000000 0.332256 0.136278 -0.136838 -28.834849 -45.516899 -0.000000 0.287152 0.464367 -0.372987
5.230000 429.119156 1242.340837 -0.000000 0.322502 0.133331 -0.137117 -42.371657 -43.741548 -0.000000 0.297486 0.467239 -0.372640
5.235000 441.154230 1188.233328 -0.000000 0.312739 0.131041 -0.137340 -56.086504 -41.617745 -0.000000 0.307794 0.469457 -0.372368
5.240000 446.511685 1123.619158 -0.000000 0.302827 0.129370 -0.137421 -70.070387 -39.311586 -0.000000 0.318182 0.471102 -0.372086
5.245000 443.633056 1050.584365 -0.000000 0.293137 0.128321 -0.137753 -84.267252 -37.066996 -0.000000 0.328574 0.472132 -0.371875
5.250000 433.242454 970.765585 -0.000000 0.283510 0.127927 -0.137971 -98.611579 -34.988488 -0.000000 0.338865 0.472415 -0.371592
5.255000 415.872107 886.093362 -0.000000 0.274056 0.128193 -0.138108 -112.960416 -33.180280 -0.000000 0.349107 0.472256 -0.371266
5.260000 391.894221 798.715910 -0.000000 0.264875 0.128828 -0.138220 -127.094980 -31.808986 -0.000000 0.359039 0.471224 -0.370862
5.265000 363.989315 709.689821 -0.000000 0.255704 0.130172 -0.138386 -140.813444 -30.686479 -0.000000 0.369004 0.469759 -0.370636
5.270000 332.797018 620.979199 -0.000000 0.246748 0.132364 -0.138598 -153.781120 -29.841608 -0.000000 0.378793 0.467708 -0.370433
5.275000 299.185972 534.350089 -0.000000 0.238027 0.135030 -0.138832 -165.646149 -29.254503 -0.000000 0.388230 0.465071 -0.370307
5.280000 264.629435 451.059308 -0.000000 0.229555 0.138210 -0.138970 -176.106030 -28.649824 -0.000000 0.397442 0.461835 -0.370066
5.285000 229.834741 372.537466 -0.000000 0.221396 0.142065 -0.139217 -184.865583 -27.865637 -0.000000 0.406199 0.458219 -0.369659
5.290000 195.743791 299.808078 -0.000000 0.213680 0.146368 -0.139251 -191.718969 -26.569493 -0.000000 0.414567 0.453952 -0.369350
5.295000 163.138234 233.700276 -0.000000 0.206409 0.151312 -0.139145 -196.569233 -24.378171 -0.000000 0.422450 0.449128 -0.369068
5.300000 132.599595 174.857851 -0.000000 0.199560 0.156647 -0.138769 -199.444454 -20.934909 -0.000000 0.429833 0.443787 -0.368836
5.305000 104.646489 123.644948 -0.000000 0.193350 0.162403 -0.137922 -200.528337 -15.898471 -0.000000 0.436662 0.437935 -0.368613
5.310000 79.893418 80.016751 -0.000000 0.187394 0.168722 -0.137542 -200.230797 -8.651277 -0.000000 0.442821 0.431534 -0.368297
5.315000 58.600732 43.858488 -0.000000 0.181787 0.175189 -0.137243 -199.146541 1.060853 -0.000000 0.448459 0.424690 -0.368246
5.320000 41.006012 14.631402 -0.000000 0.176629 0.182436 -0.137092 -198.018140 13.825192 -0.000000 0.453366 0.417450 -0.368132
5.325000 27.085720 -8.373296 -0.000000 0.171833 0.190026 -0.136890 -197.606219 30.137438 -0.000000 0.457536 0.409585 -0.368151
5.330000 16.631826 -26.006187 -0.000000 0.167556 0.198136 -0.136785 -198.636124 50.587263 -0.000000 0.461110 0.401301 -0.368132
5.335000 9.211479 -39.188234 -0.000000 0.163922 0.206589 -0.136661 -201.702353 75.943499 -0.000000 0.463978 0.392157 -0.368533
5.340000 4.294601 -48.817121 -0.000000 0.160718 0.215409 -0.136643 -207.418842 106.615529 -0.000000 0.465981 0.383082 -0.368760
5.345000 1.144970 -55.687481 -0.000000 0.157451 0.224626 -0.137316 -215.930415 143.803349 -0.000000 0.467249 0.373767 -0.368794
5.350000 -0.700137 -60.339644 -0.000000 0.155325 0.233788 -0.137369 -227.578178 187.930230 -0.000000 0.467640 0.363876 -0.369109
5.355000 -1.742919 -63.115186 -0.000000 0.153719 0.243459 -0.137625 -241.911532 240.084119 -0.000000 0.467279 0.353765 -0.369491
5.360000 -2.248960 -64.241916 -0.000000 0.152579 0.253518 -0.137888 -258.387265 300.670790 -0.000000 0.466313 0.343528 -0.370032
5.365000 -2.401995 -63.915848 -0.000000 0.151997 0.263572 -0.138120 -276.105424 369.740900 -0.000000 0.465009 0.332848 -0.370363
5.370000 -2.355357 -62.352989 -0.000000 0.152151 0.274089 -0.138396 -293.745961 446.856085 -0.000000 0.463140 0.322054 -0.370301
5.375000 -2.205313 -59.803814 -0.000000 0.152890 0.284475 -0.138655 -310.185324 530.419227 -0.000000 0.460921 0.310954 -0.370483
5.380000 -2.165760 -56.497851 -0.000000 0.154316 0.294967 -0.138882 -323.841381 618.147571 -0.000000 0.458408 0.299821 -0.371091
5.385000 -2.467855 -52.580595 -0.000000 0.156367 0.305317 -0.139031 -333.675022 707.005058 -0.000000 0.455469 0.288692 -0.371462
5.390000 -3.361456 -48.077950 -0.000000 0.159159 0.315520 -0.139015 -338.923205 794.062838 -0.000000 0.452181 0.277794 -0.371257
5.395000 -5.042700 -42.887624 -0.000000 0.162489 0.325446 -0.139103 -339.285753 876.715453 -0.000000 0.448436 0.267226 -0.371231
5.400000 -7.704327 -36.783381 -0.000000 0.166578 0.335188 -0.138939 -333.057552 953.390037 -0.000000 0.444248 0.256806 -0.371321
5.405000 -11.326067 -29.483119 -0.000000 0.171252 0.344610 -0.138826 -320.595494 1022.126806 -0.000000 0.439588 0.246707 -0.371355
5.410000 -15.777416 -20.697949 -0.000000 0.176420 0.353738 -0.138626 -302.353005 1081.507305 -0.000000 0.434439 0.237125 -0.371252
5.415000 -20.819156 -10.165031 -0.000000 0.182117 0.362495 -0.138390 -278.542351 1130.832391 -0.000000 0.428863 0.227970 -0.371316
5.420000 -26.101479 2.334972 -0.000000 0.188388 0.370977 -0.138163 -248.551824 1170.194762 -0.000000 0.422960 0.218995 -0.371370
5.425000 -31.154746 16.886685 -0.000000 0.195198 0.379176 -0.137939 -213.780354 1199.599953 -0.000000 0.416782 0.210354 -0.371422
